<svg width="24" height="24" viewBox="0 0 24 24" fill="none" xmlns="http://www.w3.org/2000/svg">
<path d="M12 0C18.6274 0 24 5.37258 24 12C24 18.6274 18.6274 24 12 24C5.37258 24 0 18.6274 0 12C0 5.37258 5.37258 0 12 0ZM16.8398 7C16.3896 7.00823 15.6987 7.25356 12.375 8.66504C11.2107 9.1595 8.88321 10.183 5.39355 11.7354C4.82693 11.9654 4.52995 12.1911 4.50293 12.4111C4.4515 12.8333 5.04747 12.9651 5.79688 13.2139C6.40792 13.4167 7.22978 13.6536 7.65723 13.6631C8.04493 13.6716 8.47832 13.5088 8.95605 13.1738C12.2152 10.9276 13.898 9.79194 14.0049 9.7666C14.0794 9.74933 14.1829 9.7275 14.2529 9.79102C14.3226 9.8546 14.316 9.97461 14.3086 10.0068C14.2488 10.2653 11.186 13.109 11.0098 13.2959C10.3362 14.0102 9.57009 14.448 10.752 15.2432C11.7746 15.9312 12.3703 16.3701 13.4238 17.0752C14.097 17.5258 14.6253 18.0594 15.3203 17.9941C15.6401 17.9639 15.97 17.6567 16.1377 16.7412C16.5343 14.5766 17.314 9.88665 17.4941 7.9541C17.5099 7.78508 17.4905 7.56893 17.4746 7.47363C17.4587 7.37853 17.4247 7.2429 17.3037 7.14258C17.1603 7.02376 16.9389 6.99831 16.8398 7Z" fill="white"/>
</svg>
